<?xml version="1.0" encoding="UTF-8"?>
<svg xmlns="http://www.w3.org/2000/svg" xmlns:xlink="http://www.w3.org/1999/xlink" width="2501" height="2501" viewBox="0 0 2501 2501">
<path fill-rule="evenodd" fill="rgb(100%, 100%, 100%)" fill-opacity="1" d="M 1042.648438 1668.996094 L 1042.648438 1795.5625 C 1042.648438 1833.46875 949.441406 1864.195312 834.460938 1864.195312 C 719.480469 1864.195312 626.269531 1833.46875 626.269531 1795.5625 L 626.269531 1668.996094 C 626.269531 1706.902344 719.480469 1737.632812 834.460938 1737.632812 C 949.441406 1737.632812 1042.648438 1706.902344 1042.648438 1668.996094 "/>
<path fill-rule="nonzero" fill="rgb(19.993591%, 19.993591%, 19.993591%)" fill-opacity="1" d="M 1063.589844 1668.996094 L 1063.589844 1795.5625 C 1063.589844 1824.597656 1034.78125 1848.613281 988.214844 1863.96875 C 948.550781 1877.042969 894.160156 1885.132812 834.460938 1885.132812 C 774.761719 1885.132812 720.371094 1877.042969 680.707031 1863.96875 C 634.140625 1848.613281 605.335938 1824.597656 605.335938 1795.5625 L 605.335938 1668.996094 L 647.207031 1668.996094 C 647.207031 1677.863281 665.011719 1688.167969 693.789062 1697.65625 C 729.472656 1709.417969 779.183594 1716.695312 834.460938 1716.695312 C 889.738281 1716.695312 939.449219 1709.417969 975.128906 1697.65625 C 1003.910156 1688.167969 1021.710938 1677.863281 1021.710938 1668.996094 Z M 1021.710938 1795.5625 L 1021.710938 1723.203125 C 1011.96875 1728.515625 1000.738281 1733.273438 988.214844 1737.402344 C 948.550781 1750.476562 894.160156 1758.566406 834.460938 1758.566406 C 774.761719 1758.566406 720.371094 1750.476562 680.707031 1737.402344 C 668.183594 1733.273438 656.945312 1728.515625 647.207031 1723.203125 L 647.207031 1795.5625 C 647.207031 1804.429688 665.011719 1814.734375 693.789062 1824.222656 C 729.472656 1835.984375 779.183594 1843.261719 834.460938 1843.261719 C 889.738281 1843.261719 939.449219 1835.984375 975.128906 1824.222656 C 1003.910156 1814.734375 1021.710938 1804.429688 1021.710938 1795.5625 "/>
<path fill-rule="evenodd" fill="rgb(100%, 100%, 100%)" fill-opacity="1" d="M 834.460938 1600.363281 C 719.480469 1600.363281 626.269531 1631.09375 626.269531 1668.996094 C 626.269531 1706.902344 719.480469 1737.632812 834.460938 1737.632812 C 949.441406 1737.632812 1042.648438 1706.902344 1042.648438 1668.996094 C 1042.648438 1631.09375 949.441406 1600.363281 834.460938 1600.363281 "/>
<path fill-rule="nonzero" fill="rgb(19.993591%, 19.993591%, 19.993591%)" fill-opacity="1" d="M 834.460938 1621.300781 C 779.183594 1621.300781 729.472656 1628.578125 693.789062 1640.339844 C 665.011719 1649.824219 647.207031 1660.128906 647.207031 1668.996094 C 647.207031 1677.863281 665.011719 1688.167969 693.789062 1697.65625 C 729.472656 1709.417969 779.183594 1716.695312 834.460938 1716.695312 C 889.738281 1716.695312 939.449219 1709.417969 975.128906 1697.65625 C 1003.910156 1688.167969 1021.710938 1677.863281 1021.710938 1668.996094 C 1021.710938 1660.128906 1003.910156 1649.824219 975.128906 1640.339844 C 939.449219 1628.578125 889.738281 1621.300781 834.460938 1621.300781 Z M 680.707031 1600.59375 C 720.371094 1587.519531 774.761719 1579.429688 834.460938 1579.429688 C 894.160156 1579.429688 948.550781 1587.519531 988.214844 1600.59375 C 1034.78125 1615.945312 1063.589844 1639.960938 1063.589844 1668.996094 C 1063.589844 1698.035156 1034.78125 1722.050781 988.214844 1737.402344 C 948.550781 1750.476562 894.160156 1758.566406 834.460938 1758.566406 C 774.761719 1758.566406 720.371094 1750.476562 680.707031 1737.402344 C 634.140625 1722.050781 605.335938 1698.035156 605.335938 1668.996094 C 605.335938 1639.960938 634.140625 1615.945312 680.707031 1600.59375 "/>
<path fill-rule="evenodd" fill="rgb(100%, 100%, 100%)" fill-opacity="1" d="M 1459.03125 1668.996094 L 1459.03125 1795.5625 C 1459.03125 1833.46875 1365.820312 1864.195312 1250.839844 1864.195312 C 1135.859375 1864.195312 1042.648438 1833.46875 1042.648438 1795.5625 L 1042.648438 1668.996094 C 1042.648438 1706.902344 1135.859375 1737.632812 1250.839844 1737.632812 C 1365.820312 1737.632812 1459.03125 1706.902344 1459.03125 1668.996094 "/>
<path fill-rule="nonzero" fill="rgb(19.993591%, 19.993591%, 19.993591%)" fill-opacity="1" d="M 1479.960938 1668.996094 L 1479.960938 1795.5625 C 1479.960938 1824.597656 1451.160156 1848.613281 1404.589844 1863.96875 C 1364.929688 1877.042969 1310.539062 1885.132812 1250.839844 1885.132812 C 1191.140625 1885.132812 1136.75 1877.042969 1097.078125 1863.96875 C 1050.519531 1848.613281 1021.710938 1824.597656 1021.710938 1795.5625 L 1021.710938 1668.996094 L 1063.589844 1668.996094 C 1063.589844 1677.863281 1081.390625 1688.167969 1110.171875 1697.65625 C 1145.851562 1709.417969 1195.558594 1716.695312 1250.839844 1716.695312 C 1306.121094 1716.695312 1355.828125 1709.417969 1391.511719 1697.65625 C 1420.289062 1688.167969 1438.089844 1677.863281 1438.089844 1668.996094 Z M 1438.089844 1795.5625 L 1438.089844 1723.203125 C 1428.351562 1728.515625 1417.121094 1733.273438 1404.589844 1737.402344 C 1364.929688 1750.476562 1310.539062 1758.566406 1250.839844 1758.566406 C 1191.140625 1758.566406 1136.75 1750.476562 1097.078125 1737.402344 C 1084.558594 1733.273438 1073.328125 1728.515625 1063.589844 1723.203125 L 1063.589844 1795.5625 C 1063.589844 1804.429688 1081.390625 1814.734375 1110.171875 1824.222656 C 1145.851562 1835.984375 1195.558594 1843.261719 1250.839844 1843.261719 C 1306.121094 1843.261719 1355.828125 1835.984375 1391.511719 1824.222656 C 1420.289062 1814.734375 1438.089844 1804.429688 1438.089844 1795.5625 "/>
<path fill-rule="evenodd" fill="rgb(19.993591%, 19.993591%, 19.993591%)" fill-opacity="1" d="M 1250.839844 1600.363281 C 1135.859375 1600.363281 1042.648438 1631.09375 1042.648438 1668.996094 C 1042.648438 1706.902344 1135.859375 1737.632812 1250.839844 1737.632812 C 1365.820312 1737.632812 1459.03125 1706.902344 1459.03125 1668.996094 C 1459.03125 1631.09375 1365.820312 1600.363281 1250.839844 1600.363281 "/>
<path fill-rule="nonzero" fill="rgb(19.993591%, 19.993591%, 19.993591%)" fill-opacity="1" d="M 1250.839844 1621.300781 C 1195.558594 1621.300781 1145.851562 1628.578125 1110.171875 1640.339844 C 1081.390625 1649.824219 1063.589844 1660.128906 1063.589844 1668.996094 C 1063.589844 1677.863281 1081.390625 1688.167969 1110.171875 1697.65625 C 1145.851562 1709.417969 1195.558594 1716.695312 1250.839844 1716.695312 C 1306.121094 1716.695312 1355.828125 1709.417969 1391.511719 1697.65625 C 1420.289062 1688.167969 1438.089844 1677.863281 1438.089844 1668.996094 C 1438.089844 1660.128906 1420.289062 1649.824219 1391.511719 1640.339844 C 1355.828125 1628.578125 1306.121094 1621.300781 1250.839844 1621.300781 Z M 1097.078125 1600.59375 C 1136.75 1587.519531 1191.140625 1579.429688 1250.839844 1579.429688 C 1310.539062 1579.429688 1364.929688 1587.519531 1404.589844 1600.59375 C 1451.160156 1615.945312 1479.960938 1639.960938 1479.960938 1668.996094 C 1479.960938 1698.035156 1451.160156 1722.050781 1404.589844 1737.402344 C 1364.929688 1750.476562 1310.539062 1758.566406 1250.839844 1758.566406 C 1191.140625 1758.566406 1136.75 1750.476562 1097.078125 1737.402344 C 1050.519531 1722.050781 1021.710938 1698.035156 1021.710938 1668.996094 C 1021.710938 1639.960938 1050.519531 1615.945312 1097.078125 1600.59375 "/>
<path fill-rule="evenodd" fill="rgb(100%, 100%, 100%)" fill-opacity="1" d="M 1459.03125 1542.433594 L 1459.03125 1668.996094 C 1459.03125 1706.902344 1365.820312 1737.632812 1250.839844 1737.632812 C 1135.859375 1737.632812 1042.648438 1706.902344 1042.648438 1668.996094 L 1042.648438 1542.433594 C 1042.648438 1580.339844 1135.859375 1611.066406 1250.839844 1611.066406 C 1365.820312 1611.066406 1459.03125 1580.339844 1459.03125 1542.433594 "/>
<path fill-rule="nonzero" fill="rgb(19.993591%, 19.993591%, 19.993591%)" fill-opacity="1" d="M 1479.960938 1542.433594 L 1479.960938 1668.996094 C 1479.960938 1698.035156 1451.160156 1722.050781 1404.589844 1737.402344 C 1364.929688 1750.476562 1310.539062 1758.566406 1250.839844 1758.566406 C 1191.140625 1758.566406 1136.75 1750.476562 1097.078125 1737.402344 C 1050.519531 1722.050781 1021.710938 1698.035156 1021.710938 1668.996094 L 1021.710938 1542.433594 L 1063.589844 1542.433594 C 1063.589844 1551.300781 1081.390625 1561.605469 1110.171875 1571.09375 C 1145.851562 1582.855469 1195.558594 1590.132812 1250.839844 1590.132812 C 1306.121094 1590.132812 1355.828125 1582.855469 1391.511719 1571.09375 C 1420.289062 1561.605469 1438.089844 1551.300781 1438.089844 1542.433594 Z M 1438.089844 1668.996094 L 1438.089844 1596.640625 C 1428.351562 1601.953125 1417.121094 1606.710938 1404.589844 1610.839844 C 1364.929688 1623.914062 1310.539062 1632.003906 1250.839844 1632.003906 C 1191.140625 1632.003906 1136.75 1623.914062 1097.089844 1610.839844 C 1084.558594 1606.710938 1073.328125 1601.953125 1063.589844 1596.640625 L 1063.589844 1668.996094 C 1063.589844 1677.863281 1081.390625 1688.167969 1110.171875 1697.65625 C 1145.851562 1709.417969 1195.558594 1716.695312 1250.839844 1716.695312 C 1306.121094 1716.695312 1355.828125 1709.417969 1391.511719 1697.65625 C 1420.289062 1688.167969 1438.089844 1677.863281 1438.089844 1668.996094 "/>
<path fill-rule="evenodd" fill="rgb(19.993591%, 19.993591%, 19.993591%)" fill-opacity="1" d="M 1250.839844 1473.800781 C 1135.859375 1473.800781 1042.648438 1504.527344 1042.648438 1542.433594 C 1042.648438 1580.339844 1135.859375 1611.066406 1250.839844 1611.066406 C 1365.820312 1611.066406 1459.03125 1580.339844 1459.03125 1542.433594 C 1459.03125 1504.527344 1365.820312 1473.800781 1250.839844 1473.800781 "/>
<path fill-rule="nonzero" fill="rgb(19.993591%, 19.993591%, 19.993591%)" fill-opacity="1" d="M 1250.839844 1494.730469 C 1195.558594 1494.730469 1145.851562 1502.011719 1110.171875 1513.773438 C 1081.390625 1523.261719 1063.589844 1533.566406 1063.589844 1542.433594 C 1063.589844 1551.300781 1081.390625 1561.605469 1110.171875 1571.09375 C 1145.851562 1582.855469 1195.558594 1590.132812 1250.839844 1590.132812 C 1306.121094 1590.132812 1355.828125 1582.855469 1391.511719 1571.09375 C 1420.289062 1561.605469 1438.089844 1551.300781 1438.089844 1542.433594 C 1438.089844 1533.566406 1420.289062 1523.261719 1391.511719 1513.773438 C 1355.828125 1502.011719 1306.121094 1494.730469 1250.839844 1494.730469 Z M 1097.078125 1474.03125 C 1136.75 1460.949219 1191.140625 1452.859375 1250.839844 1452.859375 C 1310.539062 1452.859375 1364.929688 1460.949219 1404.589844 1474.03125 C 1451.160156 1489.378906 1479.960938 1513.398438 1479.960938 1542.433594 C 1479.960938 1571.472656 1451.160156 1595.484375 1404.589844 1610.839844 C 1364.929688 1623.914062 1310.539062 1632.003906 1250.839844 1632.003906 C 1191.140625 1632.003906 1136.75 1623.914062 1097.089844 1610.839844 C 1050.519531 1595.484375 1021.710938 1571.472656 1021.710938 1542.433594 C 1021.710938 1513.398438 1050.519531 1489.378906 1097.078125 1474.03125 "/>
<path fill-rule="evenodd" fill="rgb(100%, 100%, 100%)" fill-opacity="1" d="M 1875.410156 1668.996094 L 1875.410156 1795.5625 C 1875.410156 1833.46875 1782.199219 1864.195312 1667.21875 1864.195312 C 1552.238281 1864.195312 1459.03125 1833.46875 1459.03125 1795.5625 L 1459.03125 1668.996094 C 1459.03125 1706.902344 1552.238281 1737.632812 1667.21875 1737.632812 C 1782.199219 1737.632812 1875.410156 1706.902344 1875.410156 1668.996094 "/>
<path fill-rule="nonzero" fill="rgb(19.993591%, 19.993591%, 19.993591%)" fill-opacity="1" d="M 1896.339844 1668.996094 L 1896.339844 1795.5625 C 1896.339844 1824.597656 1867.539062 1848.613281 1820.96875 1863.96875 C 1781.308594 1877.042969 1726.921875 1885.132812 1667.21875 1885.132812 C 1607.519531 1885.132812 1553.128906 1877.042969 1513.460938 1863.96875 C 1466.898438 1848.613281 1438.089844 1824.597656 1438.089844 1795.5625 L 1438.089844 1668.996094 L 1479.960938 1668.996094 C 1479.960938 1677.863281 1497.769531 1688.167969 1526.550781 1697.65625 C 1562.230469 1709.417969 1611.941406 1716.695312 1667.21875 1716.695312 C 1722.488281 1716.695312 1772.210938 1709.417969 1807.890625 1697.65625 C 1836.671875 1688.167969 1854.46875 1677.863281 1854.46875 1668.996094 Z M 1854.46875 1795.5625 L 1854.46875 1723.203125 C 1844.730469 1728.515625 1833.5 1733.273438 1820.96875 1737.402344 C 1781.308594 1750.476562 1726.921875 1758.566406 1667.21875 1758.566406 C 1607.519531 1758.566406 1553.128906 1750.476562 1513.460938 1737.402344 C 1500.941406 1733.273438 1489.699219 1728.515625 1479.960938 1723.203125 L 1479.960938 1795.5625 C 1479.960938 1804.429688 1497.769531 1814.734375 1526.550781 1824.222656 C 1562.230469 1835.984375 1611.941406 1843.261719 1667.21875 1843.261719 C 1722.488281 1843.261719 1772.210938 1835.984375 1807.890625 1824.222656 C 1836.671875 1814.734375 1854.46875 1804.429688 1854.46875 1795.5625 "/>
<path fill-rule="evenodd" fill="rgb(19.993591%, 19.993591%, 19.993591%)" fill-opacity="1" d="M 1667.21875 1600.363281 C 1552.238281 1600.363281 1459.03125 1631.09375 1459.03125 1668.996094 C 1459.03125 1706.902344 1552.238281 1737.632812 1667.21875 1737.632812 C 1782.199219 1737.632812 1875.410156 1706.902344 1875.410156 1668.996094 C 1875.410156 1631.09375 1782.199219 1600.363281 1667.21875 1600.363281 "/>
<path fill-rule="nonzero" fill="rgb(19.993591%, 19.993591%, 19.993591%)" fill-opacity="1" d="M 1667.21875 1621.300781 C 1611.941406 1621.300781 1562.230469 1628.578125 1526.550781 1640.339844 C 1497.769531 1649.824219 1479.960938 1660.128906 1479.960938 1668.996094 C 1479.960938 1677.863281 1497.769531 1688.167969 1526.550781 1697.65625 C 1562.230469 1709.417969 1611.941406 1716.695312 1667.21875 1716.695312 C 1722.488281 1716.695312 1772.210938 1709.417969 1807.890625 1697.65625 C 1836.671875 1688.167969 1854.46875 1677.863281 1854.46875 1668.996094 C 1854.46875 1660.128906 1836.671875 1649.824219 1807.890625 1640.339844 C 1772.210938 1628.578125 1722.488281 1621.300781 1667.21875 1621.300781 Z M 1513.460938 1600.59375 C 1553.128906 1587.519531 1607.519531 1579.429688 1667.21875 1579.429688 C 1726.921875 1579.429688 1781.308594 1587.519531 1820.96875 1600.59375 C 1867.539062 1615.945312 1896.339844 1639.960938 1896.339844 1668.996094 C 1896.339844 1698.035156 1867.539062 1722.050781 1820.96875 1737.402344 C 1781.308594 1750.476562 1726.921875 1758.566406 1667.21875 1758.566406 C 1607.519531 1758.566406 1553.128906 1750.476562 1513.460938 1737.402344 C 1466.898438 1722.050781 1438.089844 1698.035156 1438.089844 1668.996094 C 1438.089844 1639.960938 1466.898438 1615.945312 1513.460938 1600.59375 "/>
<path fill-rule="evenodd" fill="rgb(100%, 100%, 100%)" fill-opacity="1" d="M 1875.410156 1542.433594 L 1875.410156 1668.996094 C 1875.410156 1706.902344 1782.199219 1737.632812 1667.21875 1737.632812 C 1552.238281 1737.632812 1459.03125 1706.902344 1459.03125 1668.996094 L 1459.03125 1542.433594 C 1459.03125 1580.339844 1552.238281 1611.066406 1667.21875 1611.066406 C 1782.199219 1611.066406 1875.410156 1580.339844 1875.410156 1542.433594 "/>
<path fill-rule="nonzero" fill="rgb(19.993591%, 19.993591%, 19.993591%)" fill-opacity="1" d="M 1896.339844 1542.433594 L 1896.339844 1668.996094 C 1896.339844 1698.035156 1867.539062 1722.050781 1820.96875 1737.402344 C 1781.308594 1750.476562 1726.921875 1758.566406 1667.21875 1758.566406 C 1607.519531 1758.566406 1553.128906 1750.476562 1513.460938 1737.402344 C 1466.898438 1722.050781 1438.089844 1698.035156 1438.089844 1668.996094 L 1438.089844 1542.433594 L 1479.960938 1542.433594 C 1479.960938 1551.300781 1497.769531 1561.605469 1526.550781 1571.09375 C 1562.230469 1582.855469 1611.941406 1590.132812 1667.21875 1590.132812 C 1722.488281 1590.132812 1772.210938 1582.855469 1807.890625 1571.09375 C 1836.671875 1561.605469 1854.46875 1551.300781 1854.46875 1542.433594 Z M 1854.46875 1668.996094 L 1854.46875 1596.640625 C 1844.730469 1601.953125 1833.5 1606.710938 1820.96875 1610.839844 C 1781.308594 1623.914062 1726.921875 1632.003906 1667.21875 1632.003906 C 1607.519531 1632.003906 1553.128906 1623.914062 1513.460938 1610.839844 C 1500.941406 1606.710938 1489.699219 1601.953125 1479.960938 1596.640625 L 1479.960938 1668.996094 C 1479.960938 1677.863281 1497.769531 1688.167969 1526.550781 1697.65625 C 1562.230469 1709.417969 1611.941406 1716.695312 1667.21875 1716.695312 C 1722.488281 1716.695312 1772.210938 1709.417969 1807.890625 1697.65625 C 1836.671875 1688.167969 1854.46875 1677.863281 1854.46875 1668.996094 "/>
<path fill-rule="evenodd" fill="rgb(19.993591%, 19.993591%, 19.993591%)" fill-opacity="1" d="M 1667.21875 1473.800781 C 1552.238281 1473.800781 1459.03125 1504.527344 1459.03125 1542.433594 C 1459.03125 1580.339844 1552.238281 1611.066406 1667.21875 1611.066406 C 1782.199219 1611.066406 1875.410156 1580.339844 1875.410156 1542.433594 C 1875.410156 1504.527344 1782.199219 1473.800781 1667.21875 1473.800781 "/>
<path fill-rule="nonzero" fill="rgb(19.993591%, 19.993591%, 19.993591%)" fill-opacity="1" d="M 1667.21875 1494.730469 C 1611.941406 1494.730469 1562.230469 1502.011719 1526.550781 1513.773438 C 1497.769531 1523.261719 1479.960938 1533.566406 1479.960938 1542.433594 C 1479.960938 1551.300781 1497.769531 1561.605469 1526.550781 1571.09375 C 1562.230469 1582.855469 1611.941406 1590.132812 1667.21875 1590.132812 C 1722.488281 1590.132812 1772.210938 1582.855469 1807.890625 1571.09375 C 1836.671875 1561.605469 1854.46875 1551.300781 1854.46875 1542.433594 C 1854.46875 1533.566406 1836.671875 1523.261719 1807.890625 1513.773438 C 1772.210938 1502.011719 1722.488281 1494.730469 1667.21875 1494.730469 Z M 1513.460938 1474.03125 C 1553.128906 1460.949219 1607.519531 1452.859375 1667.21875 1452.859375 C 1726.921875 1452.859375 1781.308594 1460.949219 1820.96875 1474.03125 C 1867.539062 1489.378906 1896.339844 1513.398438 1896.339844 1542.433594 C 1896.339844 1571.472656 1867.539062 1595.484375 1820.96875 1610.839844 C 1781.308594 1623.914062 1726.921875 1632.003906 1667.21875 1632.003906 C 1607.519531 1632.003906 1553.128906 1623.914062 1513.460938 1610.839844 C 1466.898438 1595.484375 1438.089844 1571.472656 1438.089844 1542.433594 C 1438.089844 1513.398438 1466.898438 1489.378906 1513.460938 1474.03125 "/>
<path fill-rule="evenodd" fill="rgb(100%, 100%, 100%)" fill-opacity="1" d="M 1875.410156 1411.101562 L 1875.410156 1537.667969 C 1875.410156 1575.574219 1782.199219 1606.300781 1667.21875 1606.300781 C 1552.238281 1606.300781 1459.03125 1575.574219 1459.03125 1537.667969 L 1459.03125 1411.101562 C 1459.03125 1449.011719 1552.238281 1479.738281 1667.21875 1479.738281 C 1782.199219 1479.738281 1875.410156 1449.011719 1875.410156 1411.101562 "/>
<path fill-rule="nonzero" fill="rgb(19.993591%, 19.993591%, 19.993591%)" fill-opacity="1" d="M 1896.339844 1411.101562 L 1896.339844 1537.667969 C 1896.339844 1566.703125 1867.539062 1590.71875 1820.96875 1606.070312 C 1781.308594 1619.148438 1726.921875 1627.238281 1667.21875 1627.238281 C 1607.519531 1627.238281 1553.128906 1619.148438 1513.460938 1606.070312 C 1466.898438 1590.71875 1438.089844 1566.703125 1438.089844 1537.667969 L 1438.089844 1411.101562 L 1479.960938 1411.101562 C 1479.960938 1419.96875 1497.769531 1430.28125 1526.550781 1439.761719 C 1562.230469 1451.519531 1611.941406 1458.800781 1667.21875 1458.800781 C 1722.488281 1458.800781 1772.210938 1451.519531 1807.890625 1439.761719 C 1836.671875 1430.28125 1854.46875 1419.96875 1854.46875 1411.101562 Z M 1854.46875 1537.667969 L 1854.46875 1465.308594 C 1844.730469 1470.621094 1833.5 1475.378906 1820.96875 1479.511719 C 1781.308594 1492.578125 1726.921875 1500.671875 1667.21875 1500.671875 C 1607.519531 1500.671875 1553.128906 1492.578125 1513.460938 1479.511719 C 1500.941406 1475.378906 1489.699219 1470.621094 1479.960938 1465.308594 L 1479.960938 1537.667969 C 1479.960938 1546.535156 1497.769531 1556.839844 1526.550781 1566.328125 C 1562.230469 1578.089844 1611.941406 1585.367188 1667.21875 1585.367188 C 1722.488281 1585.367188 1772.210938 1578.089844 1807.890625 1566.328125 C 1836.671875 1556.839844 1854.46875 1546.535156 1854.46875 1537.667969 "/>
<path fill-rule="evenodd" fill="rgb(19.993591%, 19.993591%, 19.993591%)" fill-opacity="1" d="M 1667.21875 1342.46875 C 1552.238281 1342.46875 1459.03125 1373.199219 1459.03125 1411.101562 C 1459.03125 1449.011719 1552.238281 1479.738281 1667.21875 1479.738281 C 1782.199219 1479.738281 1875.410156 1449.011719 1875.410156 1411.101562 C 1875.410156 1373.199219 1782.199219 1342.46875 1667.21875 1342.46875 "/>
<path fill-rule="nonzero" fill="rgb(19.993591%, 19.993591%, 19.993591%)" fill-opacity="1" d="M 1667.21875 1363.410156 C 1611.941406 1363.410156 1562.230469 1370.679688 1526.550781 1382.441406 C 1497.769531 1391.929688 1479.960938 1402.238281 1479.960938 1411.101562 C 1479.960938 1419.96875 1497.769531 1430.28125 1526.550781 1439.761719 C 1562.230469 1451.519531 1611.941406 1458.800781 1667.21875 1458.800781 C 1722.488281 1458.800781 1772.210938 1451.519531 1807.890625 1439.761719 C 1836.671875 1430.28125 1854.46875 1419.96875 1854.46875 1411.101562 C 1854.46875 1402.238281 1836.671875 1391.929688 1807.890625 1382.441406 C 1772.210938 1370.679688 1722.488281 1363.410156 1667.21875 1363.410156 Z M 1513.460938 1342.699219 C 1553.128906 1329.621094 1607.519531 1321.53125 1667.21875 1321.53125 C 1726.921875 1321.53125 1781.308594 1329.621094 1820.96875 1342.699219 C 1867.539062 1358.050781 1896.339844 1382.070312 1896.339844 1411.101562 C 1896.339844 1440.140625 1867.539062 1464.160156 1820.96875 1479.511719 C 1781.308594 1492.578125 1726.921875 1500.671875 1667.21875 1500.671875 C 1607.519531 1500.671875 1553.128906 1492.578125 1513.460938 1479.511719 C 1466.898438 1464.160156 1438.089844 1440.140625 1438.089844 1411.101562 C 1438.089844 1382.070312 1466.898438 1358.050781 1513.460938 1342.699219 "/>
<path fill-rule="evenodd" fill="rgb(100%, 100%, 100%)" fill-opacity="1" d="M 1875.410156 1284.539062 L 1875.410156 1411.101562 C 1875.410156 1449.011719 1782.199219 1479.738281 1667.21875 1479.738281 C 1552.238281 1479.738281 1459.03125 1449.011719 1459.03125 1411.101562 L 1459.03125 1284.539062 C 1459.03125 1322.441406 1552.238281 1353.171875 1667.21875 1353.171875 C 1782.199219 1353.171875 1875.410156 1322.441406 1875.410156 1284.539062 "/>
<path fill-rule="nonzero" fill="rgb(19.993591%, 19.993591%, 19.993591%)" fill-opacity="1" d="M 1896.339844 1284.539062 L 1896.339844 1411.101562 C 1896.339844 1440.140625 1867.539062 1464.160156 1820.96875 1479.511719 C 1781.308594 1492.578125 1726.921875 1500.671875 1667.21875 1500.671875 C 1607.519531 1500.671875 1553.128906 1492.578125 1513.460938 1479.511719 C 1466.898438 1464.160156 1438.089844 1440.140625 1438.089844 1411.101562 L 1438.089844 1284.539062 L 1479.960938 1284.539062 C 1479.960938 1293.410156 1497.769531 1303.710938 1526.550781 1313.199219 C 1562.230469 1324.960938 1611.941406 1332.238281 1667.21875 1332.238281 C 1722.488281 1332.238281 1772.210938 1324.960938 1807.890625 1313.199219 C 1836.671875 1303.710938 1854.46875 1293.410156 1854.46875 1284.539062 Z M 1854.46875 1411.101562 L 1854.46875 1338.75 C 1844.730469 1344.058594 1833.5 1348.808594 1820.96875 1352.941406 C 1781.308594 1366.019531 1726.921875 1374.109375 1667.21875 1374.109375 C 1607.519531 1374.109375 1553.128906 1366.019531 1513.460938 1352.941406 C 1500.941406 1348.808594 1489.699219 1344.058594 1479.960938 1338.75 L 1479.960938 1411.101562 C 1479.960938 1419.96875 1497.769531 1430.28125 1526.550781 1439.761719 C 1562.230469 1451.519531 1611.941406 1458.800781 1667.21875 1458.800781 C 1722.488281 1458.800781 1772.210938 1451.519531 1807.890625 1439.761719 C 1836.671875 1430.28125 1854.46875 1419.96875 1854.46875 1411.101562 "/>
<path fill-rule="evenodd" fill="rgb(19.993591%, 19.993591%, 19.993591%)" fill-opacity="1" d="M 1667.21875 1215.898438 C 1552.238281 1215.898438 1459.03125 1246.628906 1459.03125 1284.539062 C 1459.03125 1322.441406 1552.238281 1353.171875 1667.21875 1353.171875 C 1782.199219 1353.171875 1875.410156 1322.441406 1875.410156 1284.539062 C 1875.410156 1246.628906 1782.199219 1215.898438 1667.21875 1215.898438 "/>
<path fill-rule="nonzero" fill="rgb(19.993591%, 19.993591%, 19.993591%)" fill-opacity="1" d="M 1667.21875 1236.839844 C 1611.941406 1236.839844 1562.230469 1244.121094 1526.550781 1255.878906 C 1497.769531 1265.371094 1479.960938 1275.671875 1479.960938 1284.539062 C 1479.960938 1293.410156 1497.769531 1303.710938 1526.550781 1313.199219 C 1562.230469 1324.960938 1611.941406 1332.238281 1667.21875 1332.238281 C 1722.488281 1332.238281 1772.210938 1324.960938 1807.890625 1313.199219 C 1836.671875 1303.710938 1854.46875 1293.410156 1854.46875 1284.539062 C 1854.46875 1275.671875 1836.671875 1265.371094 1807.890625 1255.878906 C 1772.210938 1244.121094 1722.488281 1236.839844 1667.21875 1236.839844 Z M 1513.460938 1216.128906 C 1553.128906 1203.058594 1607.519531 1194.96875 1667.21875 1194.96875 C 1726.921875 1194.96875 1781.308594 1203.058594 1820.96875 1216.128906 C 1867.539062 1231.488281 1896.339844 1255.5 1896.339844 1284.539062 C 1896.339844 1313.578125 1867.539062 1337.589844 1820.96875 1352.941406 C 1781.308594 1366.019531 1726.921875 1374.109375 1667.21875 1374.109375 C 1607.519531 1374.109375 1553.128906 1366.019531 1513.460938 1352.941406 C 1466.898438 1337.589844 1438.089844 1313.578125 1438.089844 1284.539062 C 1438.089844 1255.5 1466.898438 1231.488281 1513.460938 1216.128906 "/>
<path fill-rule="evenodd" fill="rgb(19.993591%, 19.993591%, 19.993591%)" fill-opacity="1" d="M 1667.21875 1207.160156 C 1552.238281 1207.160156 1459.03125 1237.890625 1459.03125 1275.800781 C 1459.03125 1313.699219 1552.238281 1344.429688 1667.21875 1344.429688 C 1782.199219 1344.429688 1875.410156 1313.699219 1875.410156 1275.800781 C 1875.410156 1237.890625 1782.199219 1207.160156 1667.21875 1207.160156 "/>
<path fill-rule="nonzero" fill="rgb(19.993591%, 19.993591%, 19.993591%)" fill-opacity="1" d="M 1667.21875 1228.101562 C 1611.941406 1228.101562 1562.230469 1235.371094 1526.550781 1247.140625 C 1497.769531 1256.621094 1479.960938 1266.929688 1479.960938 1275.800781 C 1479.960938 1284.660156 1497.769531 1294.96875 1526.550781 1304.460938 C 1562.230469 1316.21875 1611.941406 1323.488281 1667.21875 1323.488281 C 1722.488281 1323.488281 1772.210938 1316.21875 1807.890625 1304.460938 C 1836.671875 1294.96875 1854.46875 1284.660156 1854.46875 1275.800781 C 1854.46875 1266.929688 1836.671875 1256.621094 1807.890625 1247.140625 C 1772.210938 1235.371094 1722.488281 1228.101562 1667.21875 1228.101562 Z M 1513.460938 1207.390625 C 1553.128906 1194.320312 1607.519531 1186.230469 1667.21875 1186.230469 C 1726.921875 1186.230469 1781.308594 1194.320312 1820.96875 1207.390625 C 1867.539062 1222.738281 1896.339844 1246.761719 1896.339844 1275.800781 C 1896.339844 1304.828125 1867.539062 1328.851562 1820.96875 1344.199219 C 1781.308594 1357.28125 1726.921875 1365.371094 1667.21875 1365.371094 C 1607.519531 1365.371094 1553.128906 1357.28125 1513.460938 1344.199219 C 1466.898438 1328.851562 1438.089844 1304.828125 1438.089844 1275.800781 C 1438.089844 1246.761719 1466.898438 1222.738281 1513.460938 1207.390625 "/>
<path fill-rule="evenodd" fill="rgb(100%, 100%, 100%)" fill-opacity="1" d="M 1875.410156 1149.230469 L 1875.410156 1275.800781 C 1875.410156 1313.699219 1782.199219 1344.429688 1667.21875 1344.429688 C 1552.238281 1344.429688 1459.03125 1313.699219 1459.03125 1275.800781 L 1459.03125 1149.230469 C 1459.03125 1187.140625 1552.238281 1217.871094 1667.21875 1217.871094 C 1782.199219 1217.871094 1875.410156 1187.140625 1875.410156 1149.230469 "/>
<path fill-rule="nonzero" fill="rgb(19.993591%, 19.993591%, 19.993591%)" fill-opacity="1" d="M 1896.339844 1149.230469 L 1896.339844 1275.800781 C 1896.339844 1304.828125 1867.539062 1328.851562 1820.96875 1344.199219 C 1781.308594 1357.28125 1726.921875 1365.371094 1667.21875 1365.371094 C 1607.519531 1365.371094 1553.128906 1357.28125 1513.460938 1344.199219 C 1466.898438 1328.851562 1438.089844 1304.828125 1438.089844 1275.800781 L 1438.089844 1149.230469 L 1479.960938 1149.230469 C 1479.960938 1158.101562 1497.769531 1168.398438 1526.550781 1177.890625 C 1562.230469 1189.648438 1611.941406 1196.929688 1667.21875 1196.929688 C 1722.488281 1196.929688 1772.210938 1189.648438 1807.890625 1177.890625 C 1836.671875 1168.398438 1854.46875 1158.101562 1854.46875 1149.230469 Z M 1854.46875 1275.800781 L 1854.46875 1203.441406 C 1844.730469 1208.75 1833.5 1213.511719 1820.96875 1217.640625 C 1781.308594 1230.710938 1726.921875 1238.800781 1667.21875 1238.800781 C 1607.519531 1238.800781 1553.128906 1230.710938 1513.460938 1217.640625 C 1500.941406 1213.511719 1489.699219 1208.75 1479.960938 1203.441406 L 1479.960938 1275.800781 C 1479.960938 1284.660156 1497.769531 1294.96875 1526.550781 1304.460938 C 1562.230469 1316.21875 1611.941406 1323.488281 1667.21875 1323.488281 C 1722.488281 1323.488281 1772.210938 1316.21875 1807.890625 1304.460938 C 1836.671875 1294.96875 1854.46875 1284.660156 1854.46875 1275.800781 "/>
<path fill-rule="evenodd" fill="rgb(19.993591%, 19.993591%, 19.993591%)" fill-opacity="1" d="M 1667.21875 1080.601562 C 1552.238281 1080.601562 1459.03125 1111.328125 1459.03125 1149.230469 C 1459.03125 1187.140625 1552.238281 1217.871094 1667.21875 1217.871094 C 1782.199219 1217.871094 1875.410156 1187.140625 1875.410156 1149.230469 C 1875.410156 1111.328125 1782.199219 1080.601562 1667.21875 1080.601562 "/>
<path fill-rule="nonzero" fill="rgb(19.993591%, 19.993591%, 19.993591%)" fill-opacity="1" d="M 1667.21875 1101.53125 C 1611.941406 1101.53125 1562.230469 1108.808594 1526.550781 1120.570312 C 1497.769531 1130.058594 1479.960938 1140.359375 1479.960938 1149.230469 C 1479.960938 1158.101562 1497.769531 1168.398438 1526.550781 1177.890625 C 1562.230469 1189.648438 1611.941406 1196.929688 1667.21875 1196.929688 C 1722.488281 1196.929688 1772.210938 1189.648438 1807.890625 1177.890625 C 1836.671875 1168.398438 1854.46875 1158.101562 1854.46875 1149.230469 C 1854.46875 1140.359375 1836.671875 1130.058594 1807.890625 1120.570312 C 1772.210938 1108.808594 1722.488281 1101.53125 1667.21875 1101.53125 Z M 1513.460938 1080.828125 C 1553.128906 1067.75 1607.519531 1059.660156 1667.21875 1059.660156 C 1726.921875 1059.660156 1781.308594 1067.75 1820.96875 1080.828125 C 1867.539062 1096.179688 1896.339844 1120.191406 1896.339844 1149.230469 C 1896.339844 1178.269531 1867.539062 1202.28125 1820.96875 1217.640625 C 1781.308594 1230.710938 1726.921875 1238.800781 1667.21875 1238.800781 C 1607.519531 1238.800781 1553.128906 1230.710938 1513.460938 1217.640625 C 1466.898438 1202.28125 1438.089844 1178.269531 1438.089844 1149.230469 C 1438.089844 1120.191406 1466.898438 1096.179688 1513.460938 1080.828125 "/>
<path fill-rule="nonzero" fill="rgb(19.993591%, 19.993591%, 19.993591%)" fill-opacity="1" d="M 1432.519531 676.359375 C 1428.339844 892.738281 1338.941406 1088.25 1196.480469 1230.710938 C 1054.03125 1373.160156 858.515625 1462.570312 642.140625 1466.738281 C 637.800781 1466.828125 634.035156 1465.328125 630.9375 1462.289062 C 627.839844 1459.25 626.269531 1455.519531 626.269531 1451.179688 L 626.269531 1445.710938 C 626.269531 1437.238281 633.070312 1430.308594 641.535156 1430.140625 C 848.050781 1426.128906 1034.640625 1340.789062 1170.601562 1204.820312 C 1306.558594 1068.859375 1391.898438 882.269531 1395.921875 675.761719 C 1396.078125 667.289062 1403.011719 660.5 1411.480469 660.5 L 1416.949219 660.5 C 1421.289062 660.5 1425.03125 662.058594 1428.070312 665.160156 C 1431.109375 668.261719 1432.601562 672.03125 1432.519531 676.359375 "/>
<path fill-rule="nonzero" fill="rgb(19.993591%, 19.993591%, 19.993591%)" fill-opacity="1" d="M 1403.320312 671.46875 L 1361.480469 713.039062 C 1355.390625 719.078125 1345.5 719.050781 1339.460938 712.960938 L 1335.601562 709.078125 C 1329.558594 703 1329.601562 693.109375 1335.679688 687.070312 L 1403.5 619.699219 C 1409.578125 613.660156 1419.46875 613.691406 1425.511719 619.769531 L 1440.339844 634.699219 L 1492.878906 687.589844 C 1498.921875 693.671875 1498.890625 703.558594 1492.808594 709.609375 L 1488.929688 713.460938 C 1482.839844 719.511719 1472.949219 719.46875 1466.910156 713.390625 L 1425.339844 671.539062 C 1419.300781 665.460938 1409.410156 665.421875 1403.320312 671.46875 "/>
<path fill-rule="evenodd" fill="rgb(19.993591%, 19.993591%, 19.993591%)" fill-opacity="1" d="M 1667.21875 1076.820312 C 1552.238281 1076.820312 1459.03125 1107.539062 1459.03125 1145.449219 C 1459.03125 1183.359375 1552.238281 1214.078125 1667.21875 1214.078125 C 1782.199219 1214.078125 1875.410156 1183.359375 1875.410156 1145.449219 C 1875.410156 1107.539062 1782.199219 1076.820312 1667.21875 1076.820312 "/>
<path fill-rule="nonzero" fill="rgb(19.993591%, 19.993591%, 19.993591%)" fill-opacity="1" d="M 1667.21875 1097.75 C 1611.941406 1097.75 1562.230469 1105.03125 1526.550781 1116.789062 C 1497.769531 1126.28125 1479.960938 1136.578125 1479.960938 1145.449219 C 1479.960938 1154.320312 1497.769531 1164.621094 1526.550781 1174.109375 C 1562.230469 1185.871094 1611.941406 1193.148438 1667.21875 1193.148438 C 1722.488281 1193.148438 1772.210938 1185.871094 1807.890625 1174.109375 C 1836.671875 1164.621094 1854.46875 1154.320312 1854.46875 1145.449219 C 1854.46875 1136.578125 1836.671875 1126.28125 1807.890625 1116.789062 C 1772.210938 1105.03125 1722.488281 1097.75 1667.21875 1097.75 Z M 1513.460938 1077.050781 C 1553.128906 1063.96875 1607.519531 1055.878906 1667.21875 1055.878906 C 1726.921875 1055.878906 1781.308594 1063.96875 1820.96875 1077.050781 C 1867.539062 1092.398438 1896.339844 1116.410156 1896.339844 1145.449219 C 1896.339844 1174.488281 1867.539062 1198.5 1820.96875 1213.851562 C 1781.308594 1226.929688 1726.921875 1235.019531 1667.21875 1235.019531 C 1607.519531 1235.019531 1553.128906 1226.929688 1513.460938 1213.851562 C 1466.898438 1198.5 1438.089844 1174.488281 1438.089844 1145.449219 C 1438.089844 1116.410156 1466.898438 1092.398438 1513.460938 1077.050781 "/>
<path fill-rule="evenodd" fill="rgb(19.993591%, 19.993591%, 19.993591%)" fill-opacity="1" d="M 1667.21875 1068.070312 C 1552.238281 1068.070312 1459.03125 1098.800781 1459.03125 1136.710938 C 1459.03125 1174.609375 1552.238281 1205.339844 1667.21875 1205.339844 C 1782.199219 1205.339844 1875.410156 1174.609375 1875.410156 1136.710938 C 1875.410156 1098.800781 1782.199219 1068.070312 1667.21875 1068.070312 "/>
<path fill-rule="nonzero" fill="rgb(19.993591%, 19.993591%, 19.993591%)" fill-opacity="1" d="M 1667.21875 1089.011719 C 1611.941406 1089.011719 1562.230469 1096.289062 1526.550781 1108.050781 C 1497.769531 1117.53125 1479.960938 1127.839844 1479.960938 1136.710938 C 1479.960938 1145.570312 1497.769531 1155.878906 1526.550781 1165.371094 C 1562.230469 1177.128906 1611.941406 1184.398438 1667.21875 1184.398438 C 1722.488281 1184.398438 1772.210938 1177.128906 1807.890625 1165.371094 C 1836.671875 1155.878906 1854.46875 1145.570312 1854.46875 1136.710938 C 1854.46875 1127.839844 1836.671875 1117.53125 1807.890625 1108.050781 C 1772.210938 1096.289062 1722.488281 1089.011719 1667.21875 1089.011719 Z M 1513.460938 1068.300781 C 1553.128906 1055.230469 1607.519531 1047.140625 1667.21875 1047.140625 C 1726.921875 1047.140625 1781.308594 1055.230469 1820.96875 1068.300781 C 1867.539062 1083.648438 1896.339844 1107.671875 1896.339844 1136.710938 C 1896.339844 1165.738281 1867.539062 1189.761719 1820.96875 1205.109375 C 1781.308594 1218.191406 1726.921875 1226.28125 1667.21875 1226.28125 C 1607.519531 1226.28125 1553.128906 1218.191406 1513.460938 1205.109375 C 1466.898438 1189.761719 1438.089844 1165.738281 1438.089844 1136.710938 C 1438.089844 1107.671875 1466.898438 1083.648438 1513.460938 1068.300781 "/>
<path fill-rule="evenodd" fill="rgb(100%, 100%, 100%)" fill-opacity="1" d="M 1875.410156 1010.140625 L 1875.410156 1136.710938 C 1875.410156 1174.609375 1782.199219 1205.339844 1667.21875 1205.339844 C 1552.238281 1205.339844 1459.03125 1174.609375 1459.03125 1136.710938 L 1459.03125 1010.140625 C 1459.03125 1048.050781 1552.238281 1078.78125 1667.21875 1078.78125 C 1782.199219 1078.78125 1875.410156 1048.050781 1875.410156 1010.140625 "/>
<path fill-rule="nonzero" fill="rgb(19.993591%, 19.993591%, 19.993591%)" fill-opacity="1" d="M 1896.339844 1010.140625 L 1896.339844 1136.710938 C 1896.339844 1165.738281 1867.539062 1189.761719 1820.96875 1205.109375 C 1781.308594 1218.191406 1726.921875 1226.28125 1667.21875 1226.28125 C 1607.519531 1226.28125 1553.128906 1218.191406 1513.460938 1205.109375 C 1466.898438 1189.761719 1438.089844 1165.738281 1438.089844 1136.710938 L 1438.089844 1010.140625 L 1479.960938 1010.140625 C 1479.960938 1019.011719 1497.769531 1029.308594 1526.550781 1038.800781 C 1562.230469 1050.558594 1611.941406 1057.839844 1667.21875 1057.839844 C 1722.488281 1057.839844 1772.210938 1050.558594 1807.890625 1038.800781 C 1836.671875 1029.308594 1854.46875 1019.011719 1854.46875 1010.140625 Z M 1854.46875 1136.710938 L 1854.46875 1064.351562 C 1844.730469 1069.660156 1833.5 1074.421875 1820.96875 1078.550781 C 1781.308594 1091.621094 1726.921875 1099.710938 1667.21875 1099.710938 C 1607.519531 1099.710938 1553.128906 1091.621094 1513.460938 1078.550781 C 1500.941406 1074.421875 1489.699219 1069.660156 1479.960938 1064.351562 L 1479.960938 1136.710938 C 1479.960938 1145.570312 1497.769531 1155.878906 1526.550781 1165.371094 C 1562.230469 1177.128906 1611.941406 1184.398438 1667.21875 1184.398438 C 1722.488281 1184.398438 1772.210938 1177.128906 1807.890625 1165.371094 C 1836.671875 1155.878906 1854.46875 1145.570312 1854.46875 1136.710938 "/>
<path fill-rule="evenodd" fill="rgb(100%, 100%, 100%)" fill-opacity="1" d="M 1667.21875 941.511719 C 1552.238281 941.511719 1459.03125 972.238281 1459.03125 1010.140625 C 1459.03125 1048.050781 1552.238281 1078.78125 1667.21875 1078.78125 C 1782.199219 1078.78125 1875.410156 1048.050781 1875.410156 1010.140625 C 1875.410156 972.238281 1782.199219 941.511719 1667.21875 941.511719 "/>
<path fill-rule="nonzero" fill="rgb(19.993591%, 19.993591%, 19.993591%)" fill-opacity="1" d="M 1667.21875 962.441406 C 1611.941406 962.441406 1562.230469 969.71875 1526.550781 981.480469 C 1497.769531 990.96875 1479.960938 1001.269531 1479.960938 1010.140625 C 1479.960938 1019.011719 1497.769531 1029.308594 1526.550781 1038.800781 C 1562.230469 1050.558594 1611.941406 1057.839844 1667.21875 1057.839844 C 1722.488281 1057.839844 1772.210938 1050.558594 1807.890625 1038.800781 C 1836.671875 1029.308594 1854.46875 1019.011719 1854.46875 1010.140625 C 1854.46875 1001.269531 1836.671875 990.96875 1807.890625 981.480469 C 1772.210938 969.71875 1722.488281 962.441406 1667.21875 962.441406 Z M 1513.460938 941.738281 C 1553.128906 928.660156 1607.519531 920.570312 1667.21875 920.570312 C 1726.921875 920.570312 1781.308594 928.660156 1820.96875 941.738281 C 1867.539062 957.089844 1896.339844 981.109375 1896.339844 1010.140625 C 1896.339844 1039.179688 1867.539062 1063.191406 1820.96875 1078.550781 C 1781.308594 1091.621094 1726.921875 1099.710938 1667.21875 1099.710938 C 1607.519531 1099.710938 1553.128906 1091.621094 1513.460938 1078.550781 C 1466.898438 1063.191406 1438.089844 1039.179688 1438.089844 1010.140625 C 1438.089844 981.109375 1466.898438 957.089844 1513.460938 941.738281 "/>
<path fill-rule="evenodd" fill="rgb(100%, 100%, 100%)" fill-opacity="1" d="M 1459.03125 1415.871094 L 1459.03125 1542.433594 C 1459.03125 1580.339844 1365.820312 1611.066406 1250.839844 1611.066406 C 1135.859375 1611.066406 1042.648438 1580.339844 1042.648438 1542.433594 L 1042.648438 1415.871094 C 1042.648438 1453.769531 1135.859375 1484.5 1250.839844 1484.5 C 1365.820312 1484.5 1459.03125 1453.769531 1459.03125 1415.871094 "/>
<path fill-rule="nonzero" fill="rgb(19.993591%, 19.993591%, 19.993591%)" fill-opacity="1" d="M 1479.960938 1415.871094 L 1479.960938 1542.433594 C 1479.960938 1571.472656 1451.160156 1595.484375 1404.589844 1610.839844 C 1364.929688 1623.914062 1310.539062 1632.003906 1250.839844 1632.003906 C 1191.140625 1632.003906 1136.75 1623.914062 1097.089844 1610.839844 C 1050.519531 1595.484375 1021.710938 1571.472656 1021.710938 1542.433594 L 1021.710938 1415.871094 L 1063.589844 1415.871094 C 1063.589844 1424.738281 1081.390625 1435.039062 1110.171875 1444.53125 C 1145.851562 1456.289062 1195.558594 1463.570312 1250.839844 1463.570312 C 1306.121094 1463.570312 1355.828125 1456.289062 1391.511719 1444.53125 C 1420.289062 1435.039062 1438.089844 1424.738281 1438.089844 1415.871094 Z M 1438.089844 1542.433594 L 1438.089844 1470.078125 C 1428.351562 1475.390625 1417.121094 1480.140625 1404.589844 1484.269531 C 1364.929688 1497.351562 1310.539062 1505.4375 1250.839844 1505.4375 C 1191.140625 1505.4375 1136.75 1497.351562 1097.078125 1484.269531 C 1084.558594 1480.140625 1073.328125 1475.390625 1063.589844 1470.078125 L 1063.589844 1542.433594 C 1063.589844 1551.300781 1081.390625 1561.605469 1110.171875 1571.09375 C 1145.851562 1582.855469 1195.558594 1590.132812 1250.839844 1590.132812 C 1306.121094 1590.132812 1355.828125 1582.855469 1391.511719 1571.09375 C 1420.289062 1561.605469 1438.089844 1551.300781 1438.089844 1542.433594 "/>
<path fill-rule="evenodd" fill="rgb(100%, 100%, 100%)" fill-opacity="1" d="M 1250.839844 1347.230469 C 1135.859375 1347.230469 1042.648438 1377.960938 1042.648438 1415.871094 C 1042.648438 1453.769531 1135.859375 1484.5 1250.839844 1484.5 C 1365.820312 1484.5 1459.03125 1453.769531 1459.03125 1415.871094 C 1459.03125 1377.960938 1365.820312 1347.230469 1250.839844 1347.230469 "/>
<path fill-rule="nonzero" fill="rgb(19.993591%, 19.993591%, 19.993591%)" fill-opacity="1" d="M 1250.839844 1368.171875 C 1195.558594 1368.171875 1145.851562 1375.449219 1110.171875 1387.210938 C 1081.390625 1396.699219 1063.589844 1407 1063.589844 1415.871094 C 1063.589844 1424.738281 1081.390625 1435.039062 1110.171875 1444.53125 C 1145.851562 1456.289062 1195.558594 1463.570312 1250.839844 1463.570312 C 1306.121094 1463.570312 1355.828125 1456.289062 1391.511719 1444.53125 C 1420.289062 1435.039062 1438.089844 1424.738281 1438.089844 1415.871094 C 1438.089844 1407 1420.289062 1396.699219 1391.511719 1387.210938 C 1355.828125 1375.449219 1306.121094 1368.171875 1250.839844 1368.171875 Z M 1097.089844 1347.460938 C 1136.75 1334.390625 1191.140625 1326.300781 1250.839844 1326.300781 C 1310.539062 1326.300781 1364.929688 1334.390625 1404.589844 1347.460938 C 1451.160156 1362.820312 1479.960938 1386.828125 1479.960938 1415.871094 C 1479.960938 1444.910156 1451.160156 1468.921875 1404.589844 1484.269531 C 1364.929688 1497.351562 1310.539062 1505.4375 1250.839844 1505.4375 C 1191.140625 1505.4375 1136.75 1497.351562 1097.078125 1484.269531 C 1050.519531 1468.921875 1021.710938 1444.910156 1021.710938 1415.871094 C 1021.710938 1386.828125 1050.519531 1362.820312 1097.089844 1347.460938 "/>
</svg>
